<?xml version="1.0" standalone="no"?>
<!DOCTYPE svg PUBLIC "-//W3C//DTD SVG 20010904//EN"
 "http://www.w3.org/TR/2001/REC-SVG-20010904/DTD/svg10.dtd">
<svg version="1.0" xmlns="http://www.w3.org/2000/svg"
 width="1000.000000pt" height="1000.000000pt" viewBox="0 0 1000.000000 1000.000000"
 preserveAspectRatio="xMidYMid meet">
<metadata>
Created by potrace 1.11, written by Peter Selinger 2001-2013
</metadata>
<g transform="translate(0.000000,1000.000000) scale(0.100000,-0.100000)"
fill="#000000" stroke="none">
<path d="M2427 7713 l-167 -168 777 -777 778 -778 -747 -747 -748 -748 167
-167 c130 -131 170 -165 182 -158 9 5 423 416 920 914 792 792 902 906 890
919 -54 58 -119 125 -119 122 0 -1 -35 34 -77 79 -43 44 -83 84 -89 88 -5 4
-39 37 -75 73 -35 36 -93 94 -128 128 -78 76 -82 80 -102 103 -9 11 -27 29
-40 40 -13 12 -48 47 -76 77 -29 30 -53 54 -53 52 0 -1 -33 31 -72 73 -40 41
-84 84 -97 96 -13 11 -29 26 -35 33 -95 100 -116 121 -116 118 0 -1 -35 34
-77 79 -43 44 -83 84 -89 88 -5 4 -39 37 -75 73 -35 36 -90 92 -122 123 -32
31 -86 86 -120 121 -34 35 -67 69 -74 75 -19 18 -139 137 -191 189 -26 26 -49
47 -52 47 -3 0 -81 -75 -173 -167z"/>
<path d="M4419 4589 c-6 -3 -8 -103 -7 -240 l3 -234 1658 0 c913 0 1661 3
1663 7 4 6 5 61 3 98 -1 8 -1 44 0 80 0 36 1 73 1 83 0 9 0 29 -1 45 0 15 1
36 1 47 1 11 1 27 1 35 -1 8 -1 31 -1 50 l0 35 -1656 0 c-911 0 -1660 -3
-1665 -6z"/>
</g>
</svg>
